<svg version="1.1" xmlns="http://www.w3.org/2000/svg" xmlns:xlink="http://www.w3.org/1999/xlink" width="181.85997" height="140.32" viewBox="0,-0.5,181.85997,140.32"><g transform="translate(-211.36002,-91.27375)"><g data-paper-data="{&quot;isPaintingLayer&quot;:true}" fill-rule="nonzero" stroke-linecap="butt" stroke-linejoin="miter" stroke-miterlimit="10" stroke-dasharray="" stroke-dashoffset="0" style="mix-blend-mode: normal"><text transform="translate(211.63002,178.19375) scale(0.5,0.5)" font-size="40" xml:space="preserve" fill="#000000" fill-rule="nonzero" stroke="none" stroke-width="1" stroke-linecap="butt" stroke-linejoin="miter" stroke-miterlimit="10" stroke-dasharray="" stroke-dashoffset="0" font-family="Marker" font-weight="normal" text-anchor="start" style="mix-blend-mode: normal"><tspan x="0" dy="0">OOOPS, THIS GAME</tspan><tspan x="0" dy="46.150000000000006px">DOESN'T WORK IN</tspan><tspan x="0" dy="46.150000000000006px">LANDSCAPE MODE.</tspan></text><path d="M288,108h57v57h-57z" fill="none" stroke="none" stroke-width="1"/><path d="M324.34375,124.18c1.40125,1.3775 1.40125,3.63375 0,5.035l-15.105,15.105c-1.3775,1.40125 -3.63375,1.40125 -5.035,0l-28.5475,-28.5475c-1.40125,-1.3775 -1.40125,-3.63375 0,-5.035l15.105,-15.105c1.3775,-1.40125 3.63375,-1.40125 5.035,0zM308.4075,140.14l11.75625,-11.75625c0.92625,-0.92625 0.92625,-2.4225 0,-3.34875l-25.19875,-25.19875c-0.92625,-0.92625 -2.4225,-0.92625 -3.34875,0l-11.75625,11.75625c-0.92625,0.92625 -0.92625,2.4225 0,3.34875l25.175,25.175c0.92625,0.92625 2.44625,0.92625 3.3725,0.02375zM328.14375,115.55875c0.16625,0.97375 -0.49875,1.9 -1.4725,2.0425c-0.9975,0.16625 -1.9,-0.49875 -2.0425,-1.4725c-1.30625,-8.28875 -6.65,-15.2 -13.98875,-18.6675l-3.15875,3.15875l-8.265,-8.265c-0.285,-0.30875 -0.095,-0.83125 0.3325,-0.83125c5.34375,-0.11875 10.04625,1.30625 13.775,3.2775c7.79,4.1325 13.395,11.7325 14.82,20.7575zM300.78375,147.645c0.285,0.30875 0.095,0.83125 -0.3325,0.83125c-5.34375,0.11875 -10.04625,-1.30625 -13.775,-3.2775c-7.79,-4.1325 -13.395,-11.7325 -14.82,-20.78125c-0.16625,-0.97375 0.49875,-1.9 1.4725,-2.0425c0.9975,-0.16625 1.9,0.49875 2.0425,1.4725c1.30625,8.28875 6.65,15.2 13.98875,18.6675l3.15875,-3.15875z" fill="#000000" stroke="#000000" stroke-width="1.5"/></g></g></svg>