<svg version="1.1" xmlns="http://www.w3.org/2000/svg" xmlns:xlink="http://www.w3.org/1999/xlink" width="54.5" height="54.5" viewBox="0,0,54.5,54.5"><g transform="translate(-122.75,-272.75)"><g data-paper-data="{&quot;isPaintingLayer&quot;:true}" fill-rule="nonzero" stroke="none" stroke-linecap="butt" stroke-linejoin="miter" stroke-miterlimit="10" stroke-dasharray="" stroke-dashoffset="0" style="mix-blend-mode: normal"><path d="M122.75,300c0,-15.04976 12.20024,-27.25 27.25,-27.25c15.04976,0 27.25,12.20024 27.25,27.25c0,15.04976 -12.20024,27.25 -27.25,27.25c-15.04976,0 -27.25,-12.20024 -27.25,-27.25z" fill="#ffffff" stroke-width="0"/><path d="M134,294.00363h6l6.58,-6.6c1.26,-1.26 3.42,-0.36 3.42,1.42v22.34c0,1.78 -2.16,2.68 -3.42,1.42l-6.58,-6.58h-6c-1.1,0 -2,-0.9 -2,-2v-8c0,-1.1 0.9,-2 2,-2zM154,308.04363v-16.1c2.96,1.48 5,4.52 5,8.06c0,3.54 -2.04,6.58 -5,8.04zM156.42,283.20363c6.78,2.58 11.58,9.12 11.58,16.8c0,7.68 -4.8,14.22 -11.58,16.8c-1.16,0.44 -2.42,-0.44 -2.42,-1.7v-0.4c0,-0.76 0.48,-1.42 1.2,-1.7c5.16,-2.06 8.8,-7.12 8.8,-13c0,-5.88 -3.64,-10.94 -8.8,-13c-0.7,-0.28 -1.2,-0.94 -1.2,-1.7v-0.4c0,-1.26 1.26,-2.16 2.42,-1.7z" fill="#000000" stroke-width="1"/></g></g></svg>