<svg version="1.1" xmlns="http://www.w3.org/2000/svg" xmlns:xlink="http://www.w3.org/1999/xlink" width="57.5" height="57.5" viewBox="0,0,57.5,57.5"><g transform="translate(-121.25,-271.25)"><g data-paper-data="{&quot;isPaintingLayer&quot;:true}" fill-rule="nonzero" stroke-linecap="butt" stroke-linejoin="miter" stroke-miterlimit="10" stroke-dasharray="" stroke-dashoffset="0" style="mix-blend-mode: normal"><path d="M121.25,300c0,-15.87819 12.87181,-28.75 28.75,-28.75c15.87819,0 28.75,12.87181 28.75,28.75c0,15.87819 -12.87181,28.75 -28.75,28.75c-15.87819,0 -28.75,-12.87181 -28.75,-28.75z" fill="#dedede" stroke="none" stroke-width="0"/><path d="M150.00001,316.70723c-2.28332,0 -4.44133,-0.43856 -6.47405,-1.31569c-2.03271,-0.87712 -3.80786,-2.07448 -5.32543,-3.59206c-1.51757,-1.51757 -2.71493,-3.29271 -3.59206,-5.32542c-0.87712,-2.03271 -1.31569,-4.20466 -1.31569,-6.51582c0,-2.28332 0.43856,-4.44133 1.31569,-6.47405c0.87712,-2.03271 2.07448,-3.8009 3.59206,-5.30455c1.51757,-1.50365 3.29271,-2.69404 5.32543,-3.57117c2.03271,-0.87712 4.20466,-1.31569 6.51582,-1.31569c2.28332,0 4.44133,0.43856 6.47405,1.31569c2.03271,0.87712 3.80089,2.06752 5.30454,3.57117c1.50365,1.50365 2.69404,3.27183 3.57117,5.30455c0.87712,2.03271 1.31569,4.20466 1.31569,6.51582c0,2.28332 -0.43857,4.44133 -1.31569,6.47405c-0.87712,2.03271 -2.06752,3.80785 -3.57117,5.32542c-1.50365,1.51757 -3.27183,2.71493 -5.30454,3.59206c-2.03271,0.87712 -4.20466,1.31569 -6.51582,1.31569zM150.00001,314.20113c3.95404,0 7.30941,-1.38531 10.0661,-4.15592c2.75669,-2.77061 4.13504,-6.11902 4.13504,-10.04522c0,-3.95404 -1.37835,-7.30941 -4.13504,-10.0661c-2.75669,-2.75669 -6.11206,-4.13504 -10.0661,-4.13504c-3.9262,0 -7.27461,1.37835 -10.04522,4.13504c-2.77061,2.75669 -4.15592,6.11206 -4.15592,10.0661c0,3.9262 1.38531,7.27461 4.15592,10.04522c2.77061,2.77061 6.11902,4.15592 10.04522,4.15592z" fill="#000000" stroke="#000000" stroke-width="10"/></g></g></svg>