<svg version="1.1" xmlns="http://www.w3.org/2000/svg" xmlns:xlink="http://www.w3.org/1999/xlink" width="54.5" height="54.5" viewBox="0,0,54.5,54.5"><g transform="translate(-122.75,-272.75)"><g data-paper-data="{&quot;isPaintingLayer&quot;:true}" fill-rule="nonzero" stroke="none" stroke-linecap="butt" stroke-linejoin="miter" stroke-miterlimit="10" stroke-dasharray="" stroke-dashoffset="0" style="mix-blend-mode: normal"><path d="M122.75,300c0,-15.04976 12.20024,-27.25 27.25,-27.25c15.04976,0 27.25,12.20024 27.25,27.25c0,15.04976 -12.20024,27.25 -27.25,27.25c-15.04976,0 -27.25,-12.20024 -27.25,-27.25z" fill="#ffffff" stroke-width="0"/><path d="M162.78266,301.16518l3.1871,2.41602c0.6854,0.53118 0.87388,1.4736 0.44551,2.22754l-3.20423,5.53458c-0.42837,0.75394 -1.35366,1.06237 -2.14187,0.71967l-3.68401,-1.55928c-0.63399,0.44551 -1.30225,0.83961 -2.00479,1.16517l-0.49691,3.95817c-0.10281,0.85675 -0.83961,1.50787 -1.69636,1.50787h-6.39133c-0.85675,0 -1.59355,-0.65113 -1.69636,-1.50787l-0.49691,-3.95817c-0.70253,-0.32556 -1.37079,-0.71967 -2.00479,-1.16517l-3.68401,1.55928c-0.78821,0.3427 -1.71349,0.03427 -2.14187,-0.71967l-3.20423,-5.53458c-0.42837,-0.75394 -0.23989,-1.71349 0.44551,-2.22754l3.1871,-2.41602c-0.03427,-0.3941 -0.0514,-0.77107 -0.0514,-1.16517c0,-0.3941 0.01713,-0.77107 0.0514,-1.14804l-3.1871,-2.41602c-0.6854,-0.53118 -0.87388,-1.4736 -0.44551,-2.22754l3.20423,-5.55172c0.42837,-0.75394 1.35366,-1.06237 2.14187,-0.71967l3.68401,1.55928c0.63399,-0.44551 1.30225,-0.83961 2.00479,-1.16517l0.49691,-3.95817c0.10281,-0.85675 0.83961,-1.50787 1.71349,-1.50787h6.39133c0.85675,0 1.59355,0.65113 1.69636,1.50787l0.49691,3.95817c0.70253,0.32556 1.37079,0.71967 2.00479,1.16517l3.68401,-1.55928c0.78821,-0.3427 1.71349,-0.03427 2.14187,0.71967l3.20423,5.53458c0.42837,0.75394 0.23989,1.71349 -0.44551,2.22754l-3.1871,2.41602c0.03427,0.3941 0.0514,0.77107 0.0514,1.16517c0,0.3941 -0.01713,0.77107 -0.06854,1.16517zM156.06577,300c0,-3.30704 -2.69018,-5.99722 -5.99722,-5.99722c-3.30704,0 -5.99722,2.69018 -5.99722,5.99722c0,3.30704 2.69018,5.99722 5.99722,5.99722c3.30704,0 5.99722,-2.69018 5.99722,-5.99722z" fill="#000000" stroke-width="1"/></g></g></svg>