<svg version="1.1" xmlns="http://www.w3.org/2000/svg" xmlns:xlink="http://www.w3.org/1999/xlink" width="76.02985" height="89.17551" viewBox="0,0,76.02985,89.17551"><g transform="translate(-112.11945,-246.65264)"><g data-paper-data="{&quot;isPaintingLayer&quot;:true}" fill-rule="nonzero" stroke-linecap="butt" stroke-linejoin="miter" stroke-miterlimit="10" stroke-dasharray="" stroke-dashoffset="0" style="mix-blend-mode: normal"><path d="M186.10498,300c0,19.09698 -16.16474,34.57815 -36.10497,34.57815c-19.94023,0 -36.10498,-15.48117 -36.10498,-34.57815c0,-19.09698 16.16475,-34.57815 36.10498,-34.57815c19.94023,0 36.10497,15.48117 36.10497,34.57815z" fill="#ffffff" stroke="#8e8e8e" stroke-width="2.5"/><path d="M150.13196,323.37696c-3.20151,0 -6.22731,-0.61492 -9.07744,-1.84477c-2.85012,-1.22984 -5.3391,-2.90869 -7.46693,-5.03652c-2.12783,-2.12783 -3.80667,-4.6168 -5.03652,-7.46692c-1.22984,-2.85012 -1.84477,-5.89546 -1.84477,-9.136c0,-3.20151 0.61492,-6.22731 1.84477,-9.07744c1.22984,-2.85012 2.90869,-5.32934 5.03652,-7.43765c2.12783,-2.10831 4.6168,-3.77739 7.46693,-5.00723c2.85012,-1.22984 5.89546,-1.84477 9.136,-1.84477c3.20151,0 6.22731,0.61492 9.07744,1.84477c2.85012,1.22984 5.32933,2.89892 7.43764,5.00723c2.10831,2.10831 3.77739,4.58752 5.00723,7.43765c1.22984,2.85012 1.84477,5.89546 1.84477,9.136c0,3.20151 -0.61493,6.22731 -1.84477,9.07744c-1.22984,2.85012 -2.89892,5.33909 -5.00723,7.46692c-2.10831,2.12783 -4.58752,3.80667 -7.43764,5.03652c-2.85012,1.22984 -5.89546,1.84477 -9.136,1.84477zM150.13196,319.86311c5.54407,0 10.24872,-1.94238 14.11395,-5.82713c3.86523,-3.88475 5.79785,-8.57964 5.79785,-14.08467c0,-5.54407 -1.93262,-10.24872 -5.79785,-14.11395c-3.86523,-3.86523 -8.56988,-5.79785 -14.11395,-5.79785c-5.50503,0 -10.19992,1.93262 -14.08467,5.79785c-3.88475,3.86523 -5.82713,8.56988 -5.82713,14.11395c0,5.50503 1.94238,10.19992 5.82713,14.08467c3.88475,3.88475 8.57964,5.82713 14.08467,5.82713z" fill="#3ec5f4" stroke="#3ec5f4" stroke-width="10"/><text transform="translate(112.25364,258.3276) scale(0.26839,0.26839)" font-size="40" xml:space="preserve" fill="#3ec5f4" fill-rule="nonzero" stroke="none" stroke-width="1" stroke-linecap="butt" stroke-linejoin="miter" stroke-miterlimit="10" stroke-dasharray="" stroke-dashoffset="0" font-family="Sans Serif" font-weight="normal" text-anchor="start" style="mix-blend-mode: normal"><tspan x="0" dy="0">Press and hold</tspan></text></g></g></svg>