<svg version="1.1" xmlns="http://www.w3.org/2000/svg" xmlns:xlink="http://www.w3.org/1999/xlink" width="68.64427" height="68.64425" viewBox="0,0,68.64427,68.64425"><g transform="translate(-205.67786,-145.67788)"><g data-paper-data="{&quot;isPaintingLayer&quot;:true}" fill="#3ec5f4" fill-rule="nonzero" stroke="#3ec5f4" stroke-width="10" stroke-linecap="butt" stroke-linejoin="miter" stroke-miterlimit="10" stroke-dasharray="" stroke-dashoffset="0" style="mix-blend-mode: normal"><path d="M240,209.32214c-4.00736,0 -7.79479,-0.7697 -11.36232,-2.30911c-3.56753,-1.53941 -6.68301,-3.64084 -9.34643,-6.30426c-2.66342,-2.66342 -4.76485,-5.7789 -6.30426,-9.34643c-1.53941,-3.56753 -2.30912,-7.3794 -2.30912,-11.43563c0,-4.00736 0.76971,-7.79479 2.30912,-11.36232c1.53941,-3.56753 3.64084,-6.67079 6.30426,-9.30978c2.66342,-2.63899 5.7789,-4.72819 9.34643,-6.26761c3.56753,-1.53941 7.3794,-2.30911 11.43563,-2.30911c4.00736,0 7.79479,0.7697 11.36232,2.30911c3.56753,1.53941 6.67079,3.62861 9.30978,6.26761c2.63899,2.63899 4.7282,5.74225 6.26761,9.30978c1.53941,3.56753 2.30912,7.3794 2.30912,11.43563c0,4.00736 -0.76971,7.79479 -2.30912,11.36232c-1.53941,3.56753 -3.62862,6.683 -6.26761,9.34643c-2.63899,2.66342 -5.74225,4.76485 -9.30978,6.30426c-3.56753,1.53941 -7.3794,2.30911 -11.43563,2.30911zM240,204.92382c6.93957,0 12.82843,-2.4313 17.66658,-7.29388c4.83815,-4.86258 7.25723,-10.73923 7.25723,-17.62993c0,-6.93957 -2.41908,-12.82843 -7.25723,-17.66658c-4.83815,-4.83815 -10.72701,-7.25723 -17.66658,-7.25723c-6.8907,0 -12.76735,2.41907 -17.62993,7.25723c-4.86258,4.83815 -7.29388,10.72701 -7.29388,17.66658c0,6.8907 2.4313,12.76735 7.29388,17.62993c4.86258,4.86258 10.73923,7.29388 17.62993,7.29388z"/></g></g></svg>