<svg version="1.1" xmlns="http://www.w3.org/2000/svg" xmlns:xlink="http://www.w3.org/1999/xlink" width="493.5" height="374.5" viewBox="0,0,493.5,374.5"><g transform="translate(6.75,3.9375)"><g data-paper-data="{&quot;isPaintingLayer&quot;:true}" fill-rule="nonzero" stroke-linecap="butt" stroke-linejoin="miter" stroke-miterlimit="10" stroke-dasharray="" stroke-dashoffset="0" style="mix-blend-mode: normal"><path d="M-0.5,364.3125v-362h481v362z" fill="#ff0000" stroke="#ff0000" stroke-width="12.5"/><text transform="translate(203.21567,203.22995) scale(1.92676,1.92676)" font-size="40" xml:space="preserve" fill="#ffffff" fill-rule="nonzero" stroke="none" stroke-width="1" stroke-linecap="butt" stroke-linejoin="miter" stroke-miterlimit="10" stroke-dasharray="" stroke-dashoffset="0" font-family="Marker" font-weight="normal" text-anchor="start" style="mix-blend-mode: normal"><tspan x="0" dy="0">wins</tspan></text><path d="M149.88675,191.18833l-30.13769,30.13769c-0.86107,0.86107 -1.86566,1.29162 -3.01378,1.29162c-1.1481,0 -2.15271,-0.43055 -3.01378,-1.29162c-0.86107,-0.86107 -1.29162,-1.86566 -1.29162,-3.01378c0,-1.1481 0.43055,-2.15271 1.29162,-3.01378l30.13769,-30.13769l-30.13769,-30.13769c-0.86107,-0.86107 -1.29162,-1.86566 -1.29162,-3.01378c0,-1.1481 0.43055,-2.15271 1.29162,-3.01378c0.86107,-0.86107 1.86566,-1.29162 3.01378,-1.29162c1.1481,0 2.15271,0.43055 3.01378,1.29162l30.13769,30.13769l30.13769,-30.13769c0.86107,-0.86107 1.86566,-1.29162 3.01378,-1.29162c1.1481,0 2.15271,0.43055 3.01378,1.29162c0.86107,0.86107 1.29162,1.86566 1.29162,3.01378c0,1.1481 -0.43055,2.15271 -1.29162,3.01378l-30.13769,30.13769l30.13769,30.13769c0.86107,0.86107 1.29162,1.86566 1.29162,3.01378c0,1.1481 -0.43055,2.15271 -1.29162,3.01378c-0.86107,0.86107 -1.86566,1.29162 -3.01378,1.29162c-1.1481,0 -2.15271,-0.43055 -3.01378,-1.29162z" fill="#ffffff" stroke="#ffffff" stroke-width="10"/></g></g></svg>