<svg version="1.1" xmlns="http://www.w3.org/2000/svg" xmlns:xlink="http://www.w3.org/1999/xlink" width="97.82492" height="49.91752" viewBox="0,0,97.82492,49.91752"><g transform="translate(-101.24629,-273.8559)"><g data-paper-data="{&quot;isPaintingLayer&quot;:true}" fill-rule="nonzero" stroke-linejoin="miter" stroke-miterlimit="10" stroke-dasharray="" stroke-dashoffset="0" style="mix-blend-mode: normal"><path d="M128.5318,293.44208h39.27986c8.36263,0 15.16538,6.80333 15.16538,15.16538c0,8.36321 -6.80333,15.16596 -15.16538,15.16596h-39.27986c-8.36205,0 -15.16596,-6.80333 -15.16596,-15.16596c0,-8.36205 6.80391,-15.16538 15.16596,-15.16538z" data-paper-data="{&quot;index&quot;:null}" fill="#bfbfbf" stroke="none" stroke-width="1" stroke-linecap="butt"/><path d="M128.5318,296.05424h39.27986c6.93328,0 12.5538,5.62052 12.5538,12.55322v0c0,6.93328 -5.62052,12.5538 -12.5538,12.5538h-39.27986c-6.93328,0 -12.55322,-5.62052 -12.55322,-12.5538c0,-6.9327 5.61994,-12.55322 12.55322,-12.55322z" data-paper-data="{&quot;index&quot;:null}" fill="#ffffff" stroke="none" stroke-width="1" stroke-linecap="butt"/><path d="M162.88567,295.6509c7.03454,0 12.73717,5.85972 12.73717,13.08805c0,7.22833 -5.70263,13.08805 -12.73717,13.08805c-7.03454,0 -12.73717,-5.85972 -12.73717,-13.08805c0,-7.22833 5.70263,-13.08805 12.73717,-13.08805z" data-paper-data="{&quot;index&quot;:null}" fill="#ffffff" stroke="none" stroke-width="0" stroke-linecap="butt"/><path d="" fill="#ffffff" stroke="none" stroke-width="0.5" stroke-linecap="butt"/><path d="M156.58707,308.52804h-27.99378" data-paper-data="{&quot;index&quot;:null}" fill="none" stroke="#1dff00" stroke-width="25" stroke-linecap="round"/><path d="M162.18583,321.30798c-6.90356,0 -12.5,-5.59644 -12.5,-12.5c0,-6.90356 5.59644,-12.5 12.5,-12.5c6.90356,0 12.5,5.59644 12.5,12.5c0,6.90356 -5.59644,12.5 -12.5,12.5z" data-paper-data="{&quot;index&quot;:null}" fill="#ffffff" stroke="#5c5c5c" stroke-width="2" stroke-linecap="butt"/><text transform="translate(101.40434,287.60582) scale(0.31609,0.31609)" font-size="40" xml:space="preserve" fill="#1dff00" fill-rule="nonzero" stroke="none" stroke-width="1" stroke-linecap="butt" stroke-linejoin="miter" stroke-miterlimit="10" stroke-dasharray="" stroke-dashoffset="0" font-family="Sans Serif" font-weight="normal" text-anchor="start" style="mix-blend-mode: normal"><tspan x="0" dy="0">COLOR CHANGE</tspan></text></g></g></svg>