<svg version="1.1" xmlns="http://www.w3.org/2000/svg" xmlns:xlink="http://www.w3.org/1999/xlink" width="54.5" height="54.5" viewBox="0,0,54.5,54.5"><defs><linearGradient x1="69.0789" y1="21.90066" x2="69.0789" y2="-6.05261" gradientUnits="userSpaceOnUse" id="color-1"><stop offset="0" stop-color="#000000"/><stop offset="1" stop-color="#000000"/></linearGradient></defs><g transform="translate(-122.75,-272.75)"><g data-paper-data="{&quot;isPaintingLayer&quot;:true}" fill-rule="nonzero" stroke-width="0" stroke-linecap="butt" stroke-linejoin="miter" stroke-miterlimit="10" stroke-dasharray="" stroke-dashoffset="0" style="mix-blend-mode: normal"><path d="M122.75,300c0,-15.04976 12.20024,-27.25 27.25,-27.25c15.04976,0 27.25,12.20024 27.25,27.25c0,15.04976 -12.20024,27.25 -27.25,27.25c-15.04976,0 -27.25,-12.20024 -27.25,-27.25z" fill="#ffffff" stroke="none"/><path d="M148.96762,291.61836c-3.82057,3.82169 -5.66185,5.66272 -5.66185,5.66272c0,0 14.18804,-0.006 20.63178,-0.006c1.68792,0 3.05613,1.36852 3.05613,3.05613c0,1.68793 -1.36821,3.05589 -3.05613,3.05589c-5.40235,0 -20.61519,0.00631 -20.61519,0.00631c0,0 1.02133,1.03358 5.73302,5.74496c1.19356,1.19363 1.19356,3.12842 0,4.32174c-1.19418,1.19332 -3.12872,1.19363 -4.32204,0c-3.8205,-3.81995 -10.96419,-10.96444 -10.96419,-10.96444c-1.19332,-1.19363 -1.19332,-3.12867 0,-4.32174c0,0 6.16481,-6.16506 10.87644,-10.87675c1.19418,-1.19418 3.12897,-1.19418 4.32204,0c1.19363,1.19338 1.19363,3.12873 0,4.32118z" data-paper-data="{&quot;index&quot;:null}" fill="url(#color-1)" stroke="#ffffff"/></g></g></svg>