<svg version="1.1" xmlns="http://www.w3.org/2000/svg" xmlns:xlink="http://www.w3.org/1999/xlink" width="493.5" height="374.5" viewBox="0,0,493.5,374.5"><g transform="translate(6.75,3.9375)"><g data-paper-data="{&quot;isPaintingLayer&quot;:true}" fill-rule="nonzero" stroke-linecap="butt" stroke-linejoin="miter" stroke-miterlimit="10" stroke-dasharray="" stroke-dashoffset="0" style="mix-blend-mode: normal"><path d="M-0.5,364.3125v-362h481v362z" fill="#3ec5f4" stroke="#3ec5f4" stroke-width="12.5"/><text transform="translate(111.21566,202.22995) scale(1.92676,1.92676)" font-size="40" xml:space="preserve" fill="#ffffff" fill-rule="nonzero" stroke="none" stroke-width="1" stroke-linecap="butt" stroke-linejoin="miter" stroke-miterlimit="10" stroke-dasharray="" stroke-dashoffset="0" font-family="Marker" font-weight="normal" text-anchor="start" style="mix-blend-mode: normal"><tspan x="0" dy="0">   wins</tspan></text><path d="M141.52821,231.74827c-7.23318,0 -14.06938,-1.38929 -20.50869,-4.1679c-6.43928,-2.77858 -12.06264,-6.57161 -16.87006,-11.37902c-4.80742,-4.80741 -8.60042,-10.43076 -11.37902,-16.87004c-2.77858,-6.43929 -4.1679,-13.31963 -4.1679,-20.64099c0,-7.23318 1.38929,-14.06938 4.1679,-20.50869c2.77858,-6.43929 6.57161,-12.0406 11.37902,-16.80391c4.80742,-4.76331 10.43075,-8.53427 16.87006,-11.31285c6.43929,-2.77858 13.31963,-4.1679 20.641,-4.1679c7.23318,0 14.06938,1.38929 20.50869,4.1679c6.43929,2.77858 12.04058,6.54954 16.80389,11.31285c4.76331,4.76331 8.53427,10.3646 11.31285,16.80391c2.77858,6.43929 4.1679,13.31963 4.1679,20.641c0,7.23318 -1.38932,14.06938 -4.1679,20.50869c-2.77858,6.43929 -6.54954,12.06263 -11.31285,16.87004c-4.76331,4.80741 -10.3646,8.60042 -16.80389,11.37902c-6.43929,2.77858 -13.31963,4.1679 -20.641,4.1679zM141.52821,223.80941c12.52573,0 23.15497,-4.38843 31.88769,-13.16526c8.73272,-8.77683 13.0991,-19.38401 13.0991,-31.82154c0,-12.52573 -4.36638,-23.15497 -13.0991,-31.8877c-8.73272,-8.73272 -19.36196,-13.0991 -31.88769,-13.0991c-12.43753,0 -23.04471,4.36638 -31.82154,13.0991c-8.77683,8.73272 -13.16526,19.36196 -13.16526,31.8877c0,12.43753 4.38842,23.04471 13.16526,31.82154c8.77683,8.77683 19.38401,13.16526 31.82154,13.16526z" fill="#00b8f5" stroke="#ffffff" stroke-width="12.5"/></g></g></svg>