<svg version="1.1" xmlns="http://www.w3.org/2000/svg" xmlns:xlink="http://www.w3.org/1999/xlink" width="62.05152" height="62.05152" viewBox="0,0,62.05152,62.05152"><g transform="translate(-208.97424,-148.97424)"><g data-paper-data="{&quot;isPaintingLayer&quot;:true}" fill="#ff0000" fill-rule="nonzero" stroke="#ff0000" stroke-width="10" stroke-linecap="butt" stroke-linejoin="miter" stroke-miterlimit="10" stroke-dasharray="" stroke-dashoffset="0" style="mix-blend-mode: normal"><path d="M240,184.18806l-20.94026,20.94026c-0.59829,0.59829 -1.2963,0.89744 -2.09403,0.89744c-0.79772,0 -1.49574,-0.29915 -2.09403,-0.89744c-0.59829,-0.59829 -0.89744,-1.2963 -0.89744,-2.09403c0,-0.79772 0.29915,-1.49574 0.89744,-2.09403l20.94026,-20.94026l-20.94026,-20.94026c-0.59829,-0.59829 -0.89744,-1.2963 -0.89744,-2.09403c0,-0.79772 0.29915,-1.49574 0.89744,-2.09403c0.59829,-0.59829 1.2963,-0.89744 2.09403,-0.89744c0.79772,0 1.49574,0.29915 2.09403,0.89744l20.94026,20.94026l20.94026,-20.94026c0.59829,-0.59829 1.2963,-0.89744 2.09403,-0.89744c0.79772,0 1.49574,0.29915 2.09403,0.89744c0.59829,0.59829 0.89744,1.2963 0.89744,2.09403c0,0.79772 -0.29915,1.49574 -0.89744,2.09403l-20.94026,20.94026l20.94026,20.94026c0.59829,0.59829 0.89744,1.2963 0.89744,2.09403c0,0.79772 -0.29915,1.49574 -0.89744,2.09403c-0.59829,0.59829 -1.2963,0.89744 -2.09403,0.89744c-0.79772,0 -1.49574,-0.29915 -2.09403,-0.89744z"/></g></g></svg>