<svg version="1.1" xmlns="http://www.w3.org/2000/svg" xmlns:xlink="http://www.w3.org/1999/xlink" width="97.82492" height="49.91751" viewBox="0,0,97.82492,49.91751"><g transform="translate(-101.24629,-273.8559)"><g data-paper-data="{&quot;isPaintingLayer&quot;:true}" fill-rule="nonzero" stroke-linejoin="miter" stroke-miterlimit="10" stroke-dasharray="" stroke-dashoffset="0" style="mix-blend-mode: normal"><path d="M182.97704,308.60746c0,8.36263 -6.80391,15.16596 -15.16596,15.16596h-39.27986c-8.36205,0 -15.16538,-6.80275 -15.16538,-15.16596c0,-8.36205 6.80275,-15.16538 15.16538,-15.16538h39.27986c8.36205,0 15.16596,6.80333 15.16596,15.16538z" fill="#bfbfbf" stroke="none" stroke-width="1" stroke-linecap="butt"/><path d="M180.3643,308.60746c0,6.93328 -5.61994,12.5538 -12.55322,12.5538h-39.27986c-6.93328,0 -12.5538,-5.62052 -12.5538,-12.5538v0c0,-6.9327 5.62052,-12.55322 12.5538,-12.55322h39.27986c6.93328,0 12.55322,5.62052 12.55322,12.55322z" fill="#1dff00" stroke="none" stroke-width="1" stroke-linecap="butt"/><path d="M146.19438,308.73895c0,7.22833 -5.70263,13.08805 -12.73717,13.08805c-7.03454,0 -12.73717,-5.85972 -12.73717,-13.08805c0,-7.22833 5.70263,-13.08805 12.73717,-13.08805c7.03454,0 12.73717,5.85972 12.73717,13.08805z" fill="#ffffff" stroke="none" stroke-width="0" stroke-linecap="butt"/><path d="" fill="#ffffff" stroke="none" stroke-width="0.5" stroke-linecap="butt"/><path d="M167.74959,308.52804h-25.1944" fill="none" stroke="#ffffff" stroke-width="25" stroke-linecap="round"/><path d="M121.65705,308.80798c0,-6.90356 5.59644,-12.5 12.5,-12.5c6.90356,0 12.5,5.59644 12.5,12.5c0,6.90356 -5.59644,12.5 -12.5,12.5c-6.90356,0 -12.5,-5.59644 -12.5,-12.5z" fill="#ffffff" stroke="#5c5c5c" stroke-width="2" stroke-linecap="butt"/><text transform="translate(101.40434,287.60582) scale(0.31609,0.31609)" font-size="40" xml:space="preserve" fill="#ffffff" fill-rule="nonzero" stroke="none" stroke-width="1" stroke-linecap="butt" stroke-linejoin="miter" stroke-miterlimit="10" stroke-dasharray="" stroke-dashoffset="0" font-family="Sans Serif" font-weight="normal" text-anchor="start" style="mix-blend-mode: normal"><tspan x="0" dy="0">COLOR CHANGE</tspan></text></g></g></svg>