<svg version="1.1" xmlns="http://www.w3.org/2000/svg" xmlns:xlink="http://www.w3.org/1999/xlink" width="97.82492" height="49.91752" viewBox="0,0,97.82492,49.91752"><g transform="translate(-101.24629,-273.8559)"><g data-paper-data="{&quot;isPaintingLayer&quot;:true}" fill-rule="nonzero" stroke-linecap="butt" stroke-linejoin="miter" stroke-miterlimit="10" stroke-dasharray="" stroke-dashoffset="0" style="mix-blend-mode: normal"><path d="M182.97705,308.60746c0,8.36263 -6.80391,15.16596 -15.16596,15.16596h-39.27986c-8.36205,0 -15.16538,-6.80275 -15.16538,-15.16596c0,-8.36205 6.80275,-15.16538 15.16538,-15.16538h39.27986c8.36205,0 15.16596,6.80333 15.16596,15.16538z" fill="#bfbfbf" stroke="none" stroke-width="1"/><path d="M180.36431,308.60746c0,6.93328 -5.61994,12.5538 -12.55322,12.5538h-39.27986c-6.93328,0 -12.5538,-5.62052 -12.5538,-12.5538v0c0,-6.9327 5.62052,-12.55322 12.5538,-12.55322h39.27986c6.93328,0 12.55322,5.62052 12.55322,12.55322z" fill="#ffffff" stroke="none" stroke-width="1"/><path d="M141.15551,308.59898c0,6.84182 -5.70263,12.38821 -12.73717,12.38821c-7.03454,0 -12.73717,-5.54639 -12.73717,-12.38821c0,-6.84182 5.70263,-12.38821 12.73717,-12.38821c7.03454,0 12.73717,5.54639 12.73717,12.38821z" fill="#ffffff" stroke="#5c5c5c" stroke-width="2"/><text transform="translate(101.40434,287.60582) scale(0.31609,0.31609)" font-size="40" xml:space="preserve" fill="#ffffff" fill-rule="nonzero" stroke="none" stroke-width="1" stroke-linecap="butt" stroke-linejoin="miter" stroke-miterlimit="10" stroke-dasharray="" stroke-dashoffset="0" font-family="Sans Serif" font-weight="normal" text-anchor="start" style="mix-blend-mode: normal"><tspan x="0" dy="0">COLOR CHANGE</tspan></text></g></g></svg>