<svg version="1.1" xmlns="http://www.w3.org/2000/svg" xmlns:xlink="http://www.w3.org/1999/xlink" width="57.5" height="57.5" viewBox="0,0,57.5,57.5"><g transform="translate(-211.25,-151.25001)"><g data-paper-data="{&quot;isPaintingLayer&quot;:true}" fill-rule="nonzero" stroke-linecap="butt" stroke-linejoin="miter" stroke-miterlimit="10" stroke-dasharray="" stroke-dashoffset="0" style="mix-blend-mode: normal"><path d="M211.25,180.00002c0,-15.87819 12.87181,-28.75 28.75,-28.75c15.87819,0 28.75,12.87181 28.75,28.75c0,15.87819 -12.87181,28.75 -28.75,28.75c-15.87819,0 -28.75,-12.87181 -28.75,-28.75z" fill="#dedede" stroke="none" stroke-width="0"/><path d="M240,182.03547l-10.17733,10.17733c-0.29078,0.29078 -0.63002,0.43617 -1.01774,0.43617c-0.38771,0 -0.72696,-0.14539 -1.01774,-0.43617c-0.29078,-0.29078 -0.43617,-0.63002 -0.43617,-1.01774c0,-0.38771 0.14539,-0.72696 0.43617,-1.01774l10.17733,-10.17733l-10.17733,-10.17733c-0.29078,-0.29078 -0.43617,-0.63002 -0.43617,-1.01774c0,-0.38771 0.14539,-0.72696 0.43617,-1.01774c0.29078,-0.29078 0.63002,-0.43617 1.01774,-0.43617c0.38771,0 0.72696,0.14539 1.01774,0.43617l10.17733,10.17733l10.17733,-10.17733c0.29078,-0.29078 0.63002,-0.43617 1.01774,-0.43617c0.38771,0 0.72696,0.14539 1.01774,0.43617c0.29078,0.29078 0.43617,0.63002 0.43617,1.01774c0,0.38771 -0.14539,0.72696 -0.43617,1.01774l-10.17733,10.17733l10.17733,10.17733c0.29078,0.29078 0.43617,0.63002 0.43617,1.01774c0,0.38771 -0.14539,0.72696 -0.43617,1.01774c-0.29078,0.29078 -0.63002,0.43617 -1.01774,0.43617c-0.38771,0 -0.72696,-0.14539 -1.01774,-0.43617z" fill="#000000" stroke="#000000" stroke-width="6"/></g></g></svg>