<svg version="1.1" xmlns="http://www.w3.org/2000/svg" xmlns:xlink="http://www.w3.org/1999/xlink" width="76.02985" height="89.28244" viewBox="0,0,76.02985,89.28244"><g transform="translate(-112.11945,-246.54571)"><g data-paper-data="{&quot;isPaintingLayer&quot;:true}" fill-rule="nonzero" stroke-linecap="butt" stroke-linejoin="miter" stroke-miterlimit="10" stroke-dasharray="" stroke-dashoffset="0" style="mix-blend-mode: normal"><path d="M186.10498,300c0,19.09698 -16.16475,34.57815 -36.10498,34.57815c-19.94023,0 -36.10498,-15.48116 -36.10498,-34.57815c0,-19.09698 16.16475,-34.57815 36.10498,-34.57815c19.94023,0 36.10498,15.48116 36.10498,34.57815z" fill="#ffffff" stroke="#8e8e8e" stroke-width="2.5"/><path d="M149.99051,303.08138l-16.45954,16.45954c-0.47027,0.47027 -1.01892,0.70541 -1.64596,0.70541c-0.62703,0 -1.17569,-0.23514 -1.64596,-0.70541c-0.47027,-0.47027 -0.70541,-1.01892 -0.70541,-1.64596c0,-0.62703 0.23514,-1.17569 0.70541,-1.64596l16.45954,-16.45954l-16.45954,-16.45954c-0.47027,-0.47027 -0.70541,-1.01892 -0.70541,-1.64596c0,-0.62703 0.23514,-1.17569 0.70541,-1.64596c0.47027,-0.47027 1.01892,-0.70541 1.64596,-0.70541c0.62703,0 1.17569,0.23514 1.64596,0.70541l16.45954,16.45954l16.45954,-16.45954c0.47027,-0.47027 1.01892,-0.70541 1.64596,-0.70541c0.62703,0 1.17569,0.23514 1.64596,0.70541c0.47027,0.47027 0.70541,1.01892 0.70541,1.64596c0,0.62703 -0.23514,1.17569 -0.70541,1.64596l-16.45954,16.45954l16.45954,16.45954c0.47027,0.47027 0.70541,1.01892 0.70541,1.64596c0,0.62703 -0.23514,1.17569 -0.70541,1.64596c-0.47027,0.47027 -1.01892,0.70541 -1.64596,0.70541c-0.62703,0 -1.17569,-0.23514 -1.64596,-0.70541z" fill="#ff0000" stroke="#ff0000" stroke-width="10"/><text transform="translate(112.25364,258.22068) scale(0.26839,0.26839)" font-size="40" xml:space="preserve" fill="#ff0000" fill-rule="nonzero" stroke="none" stroke-width="1" stroke-linecap="butt" stroke-linejoin="miter" stroke-miterlimit="10" stroke-dasharray="" stroke-dashoffset="0" font-family="Sans Serif" font-weight="normal" text-anchor="start" style="mix-blend-mode: normal"><tspan x="0" dy="0">Press and hold</tspan></text></g></g></svg>