<svg version="1.1" xmlns="http://www.w3.org/2000/svg" xmlns:xlink="http://www.w3.org/1999/xlink" width="54.5" height="54.5" viewBox="0,0,54.5,54.5"><g transform="translate(-122.75,-272.75)"><g data-paper-data="{&quot;isPaintingLayer&quot;:true}" fill-rule="nonzero" stroke="none" stroke-linecap="butt" stroke-linejoin="miter" stroke-miterlimit="10" stroke-dasharray="" stroke-dashoffset="0" style="mix-blend-mode: normal"><path d="M122.75,300c0,-15.04976 12.20024,-27.25 27.25,-27.25c15.04976,0 27.25,12.20024 27.25,27.25c0,15.04976 -12.20024,27.25 -27.25,27.25c-15.04976,0 -27.25,-12.20024 -27.25,-27.25z" fill="#ffffff" stroke-width="0"/><path d="M136.1,283.27l30.62,30.64c0.78,0.78 0.78,2.04 0,2.82c-0.78,0.78 -2.04,0.78 -2.82,0l-2.68,-2.68c-1.34,1.08 -2.84,1.96 -4.44,2.62c-1.32,0.54 -2.78,-0.38 -2.78,-1.82c0,-0.78 0.44,-1.54 1.16,-1.84c1.16,-0.46 2.22,-1.08 3.2,-1.82l-8.36,-8.36v8.34c0,1.78 -2.16,2.68 -3.42,1.42l-6.58,-6.58h-6c-1.1,0 -2,-0.9 -2,-2v-8c0,-1.1 0.9,-2 2,-2h6l0.58,-0.6l-7.32,-7.32c-0.78,-0.78 -0.78,-2.04 0,-2.82c0.8,-0.78 2.06,-0.78 2.84,0zM155.22,287.01c-0.72,-0.28 -1.22,-0.94 -1.22,-1.7v-0.38c0,-1.26 1.26,-2.18 2.44,-1.72c6.76,2.58 11.56,9.14 11.56,16.8c0,2.78 -0.64,5.4 -1.76,7.74l-3.06,-3.06c0.52,-1.46 0.82,-3.04 0.82,-4.68c0,-5.88 -3.64,-10.92 -8.78,-13zM150,288.83v2.7l-3.76,-3.76l0.34,-0.34c1.26,-1.26 3.42,-0.38 3.42,1.4zM158.96,300.49l-4.96,-4.96v-3.58c2.96,1.48 5,4.52 5,8.06c0,0.16 -0.02,0.32 -0.04,0.48z" fill="#000000" stroke-width="1"/></g></g></svg>