<svg version="1.1" xmlns="http://www.w3.org/2000/svg" xmlns:xlink="http://www.w3.org/1999/xlink" width="54.5" height="54.5" viewBox="0,0,54.5,54.5"><g transform="translate(-122.75,-272.75)"><g data-paper-data="{&quot;isPaintingLayer&quot;:true}" fill-rule="nonzero" stroke-linecap="butt" stroke-linejoin="miter" stroke-miterlimit="10" stroke-dasharray="" stroke-dashoffset="0" style="mix-blend-mode: normal"><path d="M122.75,300c0,-15.04976 12.20024,-27.25 27.25,-27.25c15.04976,0 27.25,12.20024 27.25,27.25c0,15.04976 -12.20024,27.25 -27.25,27.25c-15.04976,0 -27.25,-12.20024 -27.25,-27.25z" fill="#ffffff" stroke="none" stroke-width="0"/><path d="M162.51161,290.28861l-9.71139,9.71139l9.71139,9.71139c0.77453,0.77453 0.77453,2.02569 0,2.80022c-0.77453,0.77453 -2.02569,0.77453 -2.80022,0l-9.71139,-9.71139l-9.71139,9.71139c-0.77453,0.77453 -2.02569,0.77453 -2.80022,0c-0.77453,-0.77453 -0.77453,-2.02569 0,-2.80022l9.71139,-9.71139l-9.71139,-9.71139c-0.77453,-0.77453 -0.77453,-2.02569 0,-2.80022c0.77453,-0.77453 2.02569,-0.77453 2.80022,0l9.71139,9.71139l9.71139,-9.69153c0.77453,-0.77453 2.02569,-0.77453 2.80022,0c0.75467,0.75467 0.75467,2.02569 0,2.78036z" fill="#000000" stroke="#000000" stroke-width="2.5"/></g></g></svg>