<svg version="1.1" xmlns="http://www.w3.org/2000/svg" xmlns:xlink="http://www.w3.org/1999/xlink" width="707.90415" height="1051.14999" viewBox="0,0,707.90415,1051.14999"><g transform="translate(210.3061,217.40104)"><g data-paper-data="{&quot;isPaintingLayer&quot;:true}" fill-rule="nonzero" stroke="none" stroke-width="0" stroke-linecap="butt" stroke-linejoin="miter" stroke-miterlimit="10" stroke-dasharray="" stroke-dashoffset="0" style="mix-blend-mode: normal"><path d="M-210.3061,767.95044l16.68108,-985.35148l224.42648,5.75197c0,0 37.56779,325.63491 12.02542,483.84509c-27.70198,171.58692 -172.28491,508.807 -172.28491,508.807z" fill="#ff6300"/><path d="M-132.32948,780.90538c0,0 145.02967,-339.98723 172.80294,-512.01565c25.44189,-157.58787 -12.54344,-480.63641 -12.54344,-480.63641l80.84806,13.05257c0,0 37.1921,327.96189 11.56046,486.72505c-27.63699,171.18433 -171.81996,505.92703 -171.81996,505.92703z" fill="#c14a00"/><path d="M-68.73137,794.11627c0,0 154.18757,-336.07183 183.73571,-507.473c27.31839,-158.46698 -12.61077,-485.17906 -12.61077,-485.17906l86.32948,13.05258c0,0 39.58847,328.68835 12.18948,487.6228c-29.48891,171.05761 -183.31443,505.02929 -183.31443,505.02929z" fill="#ff7e2d"/><path d="M14.78227,807.32716c0,0 151.93223,-334.27791 181.05677,-505.38592c27.0409,-158.86647 -12.09604,-487.26614 -12.09604,-487.26614l85.23768,13.05258c0,0 38.90939,329.73651 11.81504,488.917c-29.0847,170.87393 -180.77577,503.73509 -180.77577,503.73509z" fill="#ff6e13"/><path d="M94.34415,820.53805c0,0 148.19674,-318.86082 176.65346,-487.29915c27.40467,-162.21104 -8.95035,-505.3529 -8.95035,-505.3529l84.60325,13.05258c0,0 35.39796,348.80678 7.78776,512.23443c-28.27502,167.36274 -175.49087,480.41765 -175.49087,480.41765z" fill="#f55e00"/><path d="M176.90904,833.74895c0,0 145.70842,-318.83719 173.68739,-487.27122c26.94609,-162.21605 -8.79565,-505.38085 -8.79565,-505.38085l155.79727,13.05257l-14.65936,978.05089z" fill="#c14a00"/></g></g></svg>